# xmcd
# Copyright (C) 1995-1998 Ti Kan
#
# Track frame offsets:
#       150
#       47973
#       71898
#       143958
#
# Disc length: 2320 seconds
#
# Revision: 0
# Processed by: cddbd v1.5.2PL0 Copyright (c) Steve Scherf et al.
# Submitted via: CD-Import v1.0
#
DISCID=3e090e04
DTITLE=Azeotrop - 2006
DYEAR=2006
DGENRE=
TTITLE0=Azeotrop 2006 1
TTITLE1=Azeotrop 2006 2
TTITLE2=Azeotrop 2006 3
TTITLE3=Azeotrop 2006 4
EXTD=
EXTT0=
EXTT1=
EXTT2=
EXTT3=
PLAYORDER=
